{
  "accessors": [
    {
      "bufferView": 2,
      "componentType": 5126,
      "count": 65532,
      "max": [
        24.568567276000977,
        2.310774087905884,
        14.485640525817871
      ],
      "min": [
        1.1928540468215942,
        -24.94000244140625,
        -4.490176200866699
      ],
      "type": "VEC3"
    },
    {
      "bufferView": 2,
      "byteOffset": 786384,
      "componentType": 5126,
      "count": 65532,
      "max": [
        0.9999585747718811,
        0.9999803304672241,
        0.9999881386756897
      ],
      "min": [
        -0.9999995827674866,
        -0.9999776482582092,
        -0.9999806880950928
      ],
      "type": "VEC3"
    },
    {
      "bufferView": 1,
      "componentType": 5126,
      "count": 65532,
      "max": [
        1.0,
        1.0
      ],
      "min": [
        0.0,
        0.0
      ],
      "type": "VEC2"
    },
    {
      "bufferView": 0,
      "componentType": 5125,
      "count": 232317,
      "type": "SCALAR"
    },
    {
      "bufferView": 2,
      "byteOffset": 1572768,
      "componentType": 5126,
      "count": 65532,
      "max": [
        25.629077911376953,
        2.6425209045410156,
        12.813165664672852
      ],
      "min": [
        4.561803817749023,
        -24.920143127441406,
        -5.5075578689575195
      ],
      "type": "VEC3"
    },
    {
      "bufferView": 2,
      "byteOffset": 2359152,
      "componentType": 5126,
      "count": 65532,
      "max": [
        0.9999831914901733,
        0.99998939037323,
        0.9999363422393799
      ],
      "min": [
        -0.9999985098838806,
        -0.9999284148216248,
        -0.9999998807907104
      ],
      "type": "VEC3"
    },
    {
      "bufferView": 1,
      "byteOffset": 524256,
      "componentType": 5126,
      "count": 65532,
      "max": [
        1.0,
        0.9998999834060669
      ],
      "min": [
        0.0,
        0.0
      ],
      "type": "VEC2"
    },
    {
      "bufferView": 0,
      "byteOffset": 929268,
      "componentType": 5125,
      "count": 227355,
      "type": "SCALAR"
    },
    {
      "bufferView": 2,
      "byteOffset": 3145536,
      "componentType": 5126,
      "count": 65532,
      "max": [
        26.42140769958496,
        2.734225034713745,
        14.543654441833496
      ],
      "min": [
        1.506047010421753,
        -24.94000244140625,
        -5.957202911376953
      ],
      "type": "VEC3"
    },
    {
      "bufferView": 2,
      "byteOffset": 3931920,
      "componentType": 5126,
      "count": 65532,
      "max": [
        0.999981701374054,
        0.9999721050262451,
        0.9999839663505554
      ],
      "min": [
        -0.9999284744262695,
        -0.9999017119407654,
        -0.9999868869781494
      ],
      "type": "VEC3"
    },
    {
      "bufferView": 1,
      "byteOffset": 1048512,
      "componentType": 5126,
      "count": 65532,
      "max": [
        1.0,
        1.0
      ],
      "min": [
        0.0,
        0.0
      ],
      "type": "VEC2"
    },
    {
      "bufferView": 0,
      "byteOffset": 1838688,
      "componentType": 5125,
      "count": 213600,
      "type": "SCALAR"
    },
    {
      "bufferView": 2,
      "byteOffset": 4718304,
      "componentType": 5126,
      "count": 19797,
      "max": [
        26.315736770629883,
        2.45119309425354,
        14.385467529296875
      ],
      "min": [
        1.1928540468215942,
        -24.142330169677734,
        -5.8908491134643555
      ],
      "type": "VEC3"
    },
    {
      "bufferView": 2,
      "byteOffset": 4955868,
      "componentType": 5126,
      "count": 19797,
      "max": [
        0.9996530413627625,
        0.9998671412467957,
        0.9997473359107971
      ],
      "min": [
        -0.9998866319656372,
        -0.9998207092285156,
        -0.999826967716217
      ],
      "type": "VEC3"
    },
    {
      "bufferView": 1,
      "byteOffset": 1572768,
      "componentType": 5126,
      "count": 19797,
      "max": [
        1.0,
        0.9998999834060669
      ],
      "min": [
        0.0,
        0.0
      ],
      "type": "VEC2"
    },
    {
      "bufferView": 0,
      "byteOffset": 2693088,
      "componentType": 5125,
      "count": 33135,
      "type": "SCALAR"
    },
    {
      "bufferView": 2,
      "byteOffset": 5193432,
      "componentType": 5126,
      "count": 65532,
      "max": [
        24.45281219482422,
        2.448991060256958,
        14.724761009216309
      ],
      "min": [
        1.447577953338623,
        -24.94000244140625,
        -5.483492851257324
      ],
      "type": "VEC3"
    },
    {
      "bufferView": 2,
      "byteOffset": 5979816,
      "componentType": 5126,
      "count": 65532,
      "max": [
        0.9999759793281555,
        0.9999797940254211,
        0.9999875426292419
      ],
      "min": [
        -0.9999862909317017,
        -0.9999975562095642,
        -0.9999976754188538
      ],
      "type": "VEC3"
    },
    {
      "bufferView": 1,
      "byteOffset": 1731144,
      "componentType": 5126,
      "count": 65532,
      "max": [
        0.9998999834060669,
        1.0
      ],
      "min": [
        0.0,
        0.0
      ],
      "type": "VEC2"
    },
    {
      "bufferView": 0,
      "byteOffset": 2825628,
      "componentType": 5125,
      "count": 256794,
      "type": "SCALAR"
    },
    {
      "bufferView": 2,
      "byteOffset": 6766200,
      "componentType": 5126,
      "count": 65532,
      "max": [
        25.629077911376953,
        3.111377000808716,
        12.77475643157959
      ],
      "min": [
        4.929244041442871,
        -24.479595184326172,
        -5.862287998199463
      ],
      "type": "VEC3"
    },
    {
      "bufferView": 2,
      "byteOffset": 7552584,
      "componentType": 5126,
      "count": 65532,
      "max": [
        0.9999682307243347,
        0.999910295009613,
        0.9999353289604187
      ],
      "min": [
        -0.999980092048645,
        -0.9999890327453613,
        -0.9999820590019226
      ],
      "type": "VEC3"
    },
    {
      "bufferView": 1,
      "byteOffset": 2255400,
      "componentType": 5126,
      "count": 65532,
      "max": [
        0.9998999834060669,
        0.9998999834060669
      ],
      "min": [
        0.0,
        0.0
      ],
      "type": "VEC2"
    },
    {
      "bufferView": 0,
      "byteOffset": 3852804,
      "componentType": 5125,
      "count": 258051,
      "type": "SCALAR"
    },
    {
      "bufferView": 2,
      "byteOffset": 8338968,
      "componentType": 5126,
      "count": 65194,
      "max": [
        26.36863136291504,
        3.001439094543457,
        14.191533088684082
      ],
      "min": [
        4.973480224609375,
        -24.881927490234375,
        -5.957202911376953
      ],
      "type": "VEC3"
    },
    {
      "bufferView": 2,
      "byteOffset": 9121296,
      "componentType": 5126,
      "count": 65194,
      "max": [
        0.9999901652336121,
        0.9999953508377075,
        0.999915599822998
      ],
      "min": [
        -0.999980092048645,
        -0.9999708533287048,
        -0.9999976754188538
      ],
      "type": "VEC3"
    },
    {
      "bufferView": 1,
      "byteOffset": 2779656,
      "componentType": 5126,
      "count": 65194,
      "max": [
        1.0,
        0.9998999834060669
      ],
      "min": [
        0.0,
        0.0
      ],
      "type": "VEC2"
    },
    {
      "bufferView": 0,
      "byteOffset": 4885008,
      "componentType": 5125,
      "count": 196050,
      "type": "SCALAR"
    }
  ],
  "asset": {
    "extras": {
      "author": "Epic_Tree_Store (https://sketchfab.com/johngreenstone)",
      "license": "CC-BY-4.0 (http://creativecommons.org/licenses/by/4.0/)",
      "source": "https://sketchfab.com/3d-models/free-tree-fullsize-photogrammetry-scan-2-draft-fabc5ef137854b369152062b59444159",
      "title": "Free Tree fullsize photogrammetry scan 2 Draft"
    },
    "generator": "Sketchfab-12.65.0",
    "version": "2.0"
  },
  "bufferViews": [
    {
      "buffer": 0,
      "byteLength": 5669208,
      "name": "floatBufferViews",
      "target": 34963
    },
    {
      "buffer": 0,
      "byteLength": 3301208,
      "byteOffset": 5669208,
      "byteStride": 8,
      "name": "floatBufferViews",
      "target": 34962
    },
    {
      "buffer": 0,
      "byteLength": 9903624,
      "byteOffset": 8970416,
      "byteStride": 12,
      "name": "floatBufferViews",
      "target": 34962
    }
  ],
  "buffers": [
    {
      "byteLength": 18874040,
      "uri": "scene.bin"
    }
  ],
  "extensionsUsed": [
    "KHR_materials_unlit"
  ],
  "images": [
    {
      "uri": "textures/Material.001_baseColor.png"
    }
  ],
  "materials": [
    {
      "alphaCutoff": 0.7604801829268293,
      "alphaMode": "MASK",
      "extensions": {
        "KHR_materials_unlit": {}
      },
      "name": "Material.001",
      "pbrMetallicRoughness": {
        "baseColorTexture": {
          "index": 0
        },
        "metallicFactor": 0.0
      }
    },
    {
      "alphaCutoff": 0.93,
      "alphaMode": "MASK",
      "extensions": {
        "KHR_materials_unlit": {}
      },
      "name": "Material.001_Model2_Model_0.jpg",
      "pbrMetallicRoughness": {
        "baseColorTexture": {
          "index": 0
        },
        "metallicFactor": 0.0
      }
    }
  ],
  "meshes": [
    {
      "name": "Object_0",
      "primitives": [
        {
          "attributes": {
            "NORMAL": 1,
            "POSITION": 0,
            "TEXCOORD_0": 2
          },
          "indices": 3,
          "material": 0,
          "mode": 4
        }
      ]
    },
    {
      "name": "Object_1",
      "primitives": [
        {
          "attributes": {
            "NORMAL": 5,
            "POSITION": 4,
            "TEXCOORD_0": 6
          },
          "indices": 7,
          "material": 0,
          "mode": 4
        }
      ]
    },
    {
      "name": "Object_2",
      "primitives": [
        {
          "attributes": {
            "NORMAL": 9,
            "POSITION": 8,
            "TEXCOORD_0": 10
          },
          "indices": 11,
          "material": 0,
          "mode": 4
        }
      ]
    },
    {
      "name": "Object_3",
      "primitives": [
        {
          "attributes": {
            "NORMAL": 13,
            "POSITION": 12,
            "TEXCOORD_0": 14
          },
          "indices": 15,
          "material": 0,
          "mode": 4
        }
      ]
    },
    {
      "name": "Object_4",
      "primitives": [
        {
          "attributes": {
            "NORMAL": 17,
            "POSITION": 16,
            "TEXCOORD_0": 18
          },
          "indices": 19,
          "material": 1,
          "mode": 4
        }
      ]
    },
    {
      "name": "Object_5",
      "primitives": [
        {
          "attributes": {
            "NORMAL": 21,
            "POSITION": 20,
            "TEXCOORD_0": 22
          },
          "indices": 23,
          "material": 1,
          "mode": 4
        }
      ]
    },
    {
      "name": "Object_6",
      "primitives": [
        {
          "attributes": {
            "NORMAL": 25,
            "POSITION": 24,
            "TEXCOORD_0": 26
          },
          "indices": 27,
          "material": 1,
          "mode": 4
        }
      ]
    }
  ],
  "nodes": [
    {
      "children": [
        1
      ],
      "matrix": [
        0.9998721480369568,
        -0.015989484265446663,
        -3.550378716676109e-18,
        0.0,
        -0.015988914296030998,
        -0.9998365640640259,
        0.008435144089162128,
        0.0,
        -0.00013487359683495015,
        -0.008434066548943298,
        -0.9999644160270691,
        0.0,
        -0.17215129733085632,
        -6.270993232727054,
        15.389967918395994,
        1.0
      ],
      "name": "Sketchfab_model"
    },
    {
      "children": [
        2,
        3,
        4,
        5,
        6,
        7,
        8
      ],
      "name": "Model4.obj.cleaner.materialmerger.gles"
    },
    {
      "mesh": 0,
      "name": "Object_2"
    },
    {
      "mesh": 1,
      "name": "Object_3"
    },
    {
      "mesh": 2,
      "name": "Object_4"
    },
    {
      "mesh": 3,
      "name": "Object_5"
    },
    {
      "mesh": 4,
      "name": "Object_6"
    },
    {
      "mesh": 5,
      "name": "Object_7"
    },
    {
      "mesh": 6,
      "name": "Object_8"
    }
  ],
  "samplers": [
    {
      "magFilter": 9729,
      "minFilter": 9987,
      "wrapS": 10497,
      "wrapT": 10497
    }
  ],
  "scene": 0,
  "scenes": [
    {
      "name": "Sketchfab_Scene",
      "nodes": [
        0
      ]
    }
  ],
  "textures": [
    {
      "sampler": 0,
      "source": 0
    }
  ]
}
